<svg width="42" height="43" viewBox="0 0 42 43" fill="none" xmlns="http://www.w3.org/2000/svg">
<g clip-path="url(#clip0_1_1064)">
<path d="M32.0161 6.05814C32.116 5.81221 31.9126 5.57087 31.9126 5.57087C31.9126 5.57087 30.3154 2.85368 24.6642 2.25087C21.6385 1.9284 17.5192 2.54058 14.632 4.09758C9.40058 6.91636 8.61724 11.5599 8.61724 11.5599C8.58778 11.6735 8.53765 12.0197 8.65529 12.1674C8.77507 12.3176 8.94941 12.3148 9.16571 12.2419C11.012 11.6182 16.5149 9.79328 19.9876 8.87168C24.9296 7.56146 28.9894 6.76419 31.5953 6.3202C31.7802 6.28884 31.9462 6.22822 32.0161 6.05814" fill="#FFBB36"/>
<path d="M37.6591 27.9427C34.7012 34.5857 29.0263 39.2088 21.5889 39.3141C16.173 39.391 11.3935 37.5355 7.94169 34.2991L5.85404 35.1923L5.85751 31.96C3.58297 28.892 2.26417 25.0112 2.26417 20.6027C2.26417 9.31123 10.9127 0.410489 22.9743 0.410489C24.9431 0.410489 26.7224 0.716865 28.064 1.02077C25.997 0.359324 23.9432 0.000915527 21.657 0.000915527C8.71199 0.000915527 0.000453891 10.4974 0 21.3222C0 33.1183 9.25393 42.999 21.4004 42.999C33.0019 42.999 39.2612 34.8196 41.2628 29.9005L37.6591 27.9427Z" fill="#0066B3"/>
<path d="M34.6564 25.609C36.3587 25.4159 37.5364 24.7316 38.1828 24.097C38.772 23.5182 38.9094 22.7212 38.9103 22.1292C38.934 21.2593 38.9103 18.5142 38.9103 18.5142L34.4054 19.4889C34.4054 19.4889 34.405 19.8285 34.4037 20.5413C34.412 21.2374 34.7475 21.6164 35.4772 21.4821C35.7059 21.4447 36.0579 21.3324 36.0579 21.3324L36.064 22.1927C36.0601 22.1681 36.1306 22.6724 34.9953 22.8968C33.5096 23.1301 32.8345 22.2159 32.8168 20.6004C32.8461 18.8692 33.825 17.8707 35.0125 17.5973C36.3485 17.2909 37.1047 17.6092 37.5491 17.677C39.0412 17.9004 39.4644 15.6633 38.1071 15.1386C37.1037 14.7344 35.8019 14.6614 34.5609 14.9092C32.904 15.2396 29.6455 16.6265 29.6364 21.1329C29.6453 24.7137 32.2852 25.8807 34.6565 25.609H34.6564ZM20.0125 29.4469C20.0125 29.4469 21.3947 28.9728 21.5143 28.9308C22.6252 28.5474 23.03 27.8868 23.025 26.7435C23.011 25.5021 23.009 23.0814 23.009 23.0814L26.2229 26.7846C26.745 27.3238 27.3993 27.3698 27.9984 27.1941C28.6177 27.0127 29.1334 26.4465 29.149 25.6479C29.1541 22.9736 29.1477 16.4469 29.1477 16.4469C29.1477 16.4469 28.3171 16.6231 27.6277 16.8186C26.8345 17.0434 26.2242 17.5491 26.2242 18.8843C26.2242 19.357 26.2225 22.0695 26.2225 22.0695C26.2225 22.0695 24.4136 19.801 23.2308 18.6177C22.5984 17.986 21.552 18.3631 21.552 18.3631L20.0099 18.8298L20.0125 29.4469ZM19.0394 19.069C19.0394 19.069 18.0715 19.3529 17.2838 19.6373C16.261 20.0071 15.6714 20.5989 15.6714 22.1471C15.6714 23.5691 15.669 30.9702 15.669 30.9702C15.669 30.9702 16.5649 30.6638 17.4003 30.3487C18.5879 29.901 19.0359 29.2901 19.0359 28.043C19.0359 26.9712 19.0394 19.069 19.0394 19.069ZM14.236 21.1685C13.3476 20.7649 12.5851 21.215 12.2612 21.7124L9.53043 26.357L9.52564 22.6126L6.30644 23.9462L6.29637 34.5348L8.56405 33.5842C8.56405 33.5842 9.00919 33.458 9.27786 33.0359C9.52473 32.647 9.51553 31.9947 9.51553 31.9947L9.51834 28.6371L12.0527 31.3264C12.6092 31.9044 13.6317 32.2011 14.534 31.4723C15.3498 30.8135 15.2234 29.6903 14.7683 29.1873L12.4595 26.8632C12.4595 26.8632 14.4914 23.6609 14.8236 23.1258C15.2645 22.4151 15.0427 21.5349 14.236 21.1685Z" fill="#EC1D23"/>
<path d="M12.9753 33.6146C12.8555 33.8907 13.1288 34.1646 13.1288 34.1646C14.3005 35.6347 19.5029 37.499 25.1498 36.1341C33.7734 34.0485 35.5956 27.9477 35.8019 27.0863C35.8444 26.9107 35.8779 26.6282 35.7149 26.4587C35.5782 26.3172 35.3839 26.3157 35.1143 26.3781C29.1247 27.7861 19.1578 30.8284 13.4115 33.2905C13.1642 33.3964 13.0522 33.4353 12.9753 33.6146Z" fill="#FFBB36"/>
<path d="M7.86081 19.7378C7.85293 19.1542 7.3992 18.8358 6.61517 19.2293L6.61352 21.1055C6.61352 21.1055 6.86704 20.9933 7.05301 20.9067C7.51144 20.694 7.87158 20.3115 7.86081 19.7378ZM6.5997 18.0419C6.72175 17.9947 6.84168 17.9421 6.95914 17.8844C7.3839 17.6775 7.68619 17.2939 7.68969 16.7972C7.69407 16.2315 7.22821 16.0853 6.60061 16.4097L6.5997 18.0419ZM9.91875 19.4698C9.94425 20.9505 8.87761 21.7383 7.48808 22.314L4.64178 23.5233L4.63518 15.812C4.63518 15.812 6.42846 15.0809 7.01352 14.8681C8.67658 14.2629 9.65446 14.9924 9.65446 16.1034C9.65446 16.8447 9.33715 17.4748 8.64848 18.0285C9.32667 18.1416 9.90575 18.6987 9.91875 19.4698ZM15.3219 12.9612C15.3219 12.3117 14.8752 12.1389 14.3349 12.2945C13.898 12.4195 13.3892 12.6182 13.3892 12.6182L13.3857 17.4123C13.3804 17.8898 13.3065 18.4875 12.7183 18.6356C12.2667 18.7495 12.0532 18.4482 12.0527 17.9715L12.0463 14.0476C12.0463 13.3948 11.5922 13.1993 11.0536 13.378C10.4481 13.5802 10.0843 13.7258 10.0843 13.7258C10.0843 13.7258 10.0913 17.1206 10.083 18.4782C10.0753 20.0696 11.1725 20.8641 12.8449 20.3701C14.3203 19.9339 15.3054 19.1083 15.3241 16.9889L15.3219 12.9612ZM31.1406 14.9424C31.5656 14.8507 31.8307 14.5502 31.8307 14.0309C31.8307 13.563 31.8325 13.2072 31.8325 13.2072L29.5237 13.7116L29.5279 12.3534C29.5279 12.3534 30.6596 12.1134 30.9738 12.0449C31.3687 11.9583 31.5755 11.7431 31.5755 11.2918C31.5755 10.8709 31.5729 10.5066 31.5729 10.5066L29.5272 10.9407L29.5268 9.86371C29.5268 9.86371 30.5902 9.64172 31.1633 9.52127C31.6098 9.42744 31.7571 9.12164 31.7571 8.70084C31.7571 8.42682 31.7615 7.88446 31.7615 7.88446C30.7411 8.06461 28.8013 8.45215 27.5917 8.72923L27.5752 15.7588C27.5752 15.7588 29.8754 15.217 31.1406 14.9424ZM17.799 14.6585C17.8007 14.6572 18.9412 14.068 18.9287 13.1334C18.9175 12.3342 18.1814 12.5092 17.7995 12.6492L17.799 14.6585ZM17.802 15.7429C17.802 15.7429 17.7982 17.0891 17.7963 17.6324C17.7916 18.1416 17.4439 18.5094 17.0036 18.6776C16.6356 18.8039 15.8535 19.073 15.8535 19.073L15.8565 11.8343C15.8565 11.8343 17.4716 11.2717 18.4213 11.051C19.8971 10.7077 20.9467 11.3793 20.9277 12.5714C20.9185 13.7064 20.2854 14.3951 19.7166 14.8666L20.9665 16.0666C21.3506 16.4387 21.3774 17.1114 20.9454 17.5179C20.6892 17.7586 20.0042 18.008 19.4678 17.4621L17.802 15.7429ZM34.1427 10.7652C34.1451 10.7652 35.2694 10.337 35.2566 9.43545C35.2449 8.67299 34.4941 8.81102 34.1398 8.89016L34.1427 10.7651V10.7652ZM32.2559 14.7317L32.2589 7.79071C32.2589 7.79071 34.2856 7.43246 34.809 7.36512C36.2618 7.17853 37.2367 7.98489 37.2167 9.13035C37.209 10.1377 36.5761 10.7439 36.0382 11.1076C36.0382 11.1076 37.0265 12.221 37.2914 12.5156C37.6471 12.9126 37.6312 13.5914 37.1049 13.9239C36.5876 14.2501 36.0752 14.0794 35.7777 13.7509L34.1462 11.8375C34.1462 11.8375 34.1515 13.0143 34.1501 13.5281C34.1454 14.0396 33.8495 14.4125 33.3189 14.5222L32.2559 14.7317Z" fill="#EC1D23"/>
<path d="M27.1207 11.8184L24.2458 12.4713C24.2458 12.4713 24.2423 12.775 24.2419 13.2709C24.2458 13.6427 24.5066 13.8841 24.8817 13.8068C25.1183 13.7577 25.3077 13.7138 25.3077 13.7138L25.312 14.5123C25.3151 14.8281 24.8411 15.035 24.3489 15.0236C23.6591 15.0057 23.2766 14.4697 23.2667 13.4499C23.2882 12.1089 23.919 11.3217 24.7783 11.1019C25.2074 10.9914 25.5979 11.0452 25.9012 11.0846C26.6419 11.2042 27.0684 10.8471 27.0836 10.235C27.099 9.57929 26.5175 9.1738 25.2692 9.21708C22.5625 9.31054 21.1785 11.2552 21.1785 13.5761C21.1785 15.9529 22.7312 17.0028 24.6265 16.6603C25.6976 16.4443 26.2303 16.0965 26.5995 15.7728C26.9686 15.449 27.1207 14.9648 27.1207 14.5514V11.8184Z" fill="#EC1D23"/>
<path d="M15.7941 4.04432C12.6237 5.44387 10.4831 8.77532 10.3654 10.1855C10.3191 10.7461 11.0623 10.8265 11.1323 10.2313C11.8013 7.65895 13.8489 5.23372 15.7941 4.04432ZM26.3003 6.4346C28.0104 6.01512 28.9495 5.95182 28.9664 5.18792C28.9961 3.90877 25.3466 2.42554 22.005 2.6942C25.4098 2.92172 27.4521 4.23248 27.4633 5.14596C27.4697 5.72372 26.969 6.23361 26.3003 6.4346ZM27.36 34.7079C29.9259 33.6987 32.3917 31.7709 33.7558 28.8833C34.1495 28.0489 33.0111 27.6226 32.6897 28.6025C31.8913 30.6555 30.2503 33.066 27.36 34.7079Z" fill="white"/>
</g>
<defs>
<clipPath id="clip0_1_1064">
<rect width="41.2628" height="43" fill="white"/>
</clipPath>
</defs>
</svg>
