<svg width="280" height="186" viewBox="0 0 280 186" fill="none" xmlns="http://www.w3.org/2000/svg">
<rect width="280" height="186" rx="24" fill="#400A3E"/>
<path d="M88.708 99.5798L93.1903 92.7188L94.8274 98.4492L100.188 96.99L101.137 102.305L107.186 101.271L102.714 108.132L88.708 99.5798Z" fill="white"/>
<path d="M102.714 108.808C102.584 108.808 102.454 108.77 102.344 108.702L88.3485 100.15C88.019 99.9468 87.9292 99.5313 88.1289 99.2124L92.6011 92.3513C92.7509 92.1291 93.0204 92.0034 93.2899 92.0421C93.5595 92.0807 93.7891 92.274 93.859 92.5349L95.3065 97.6179L99.9984 96.3423C100.188 96.294 100.398 96.323 100.557 96.4196C100.727 96.5259 100.837 96.6902 100.877 96.8738L101.705 101.522L107.066 100.604C107.336 100.556 107.615 100.672 107.765 100.894C107.915 101.116 107.925 101.406 107.775 101.628L103.303 108.489C103.173 108.692 102.943 108.808 102.714 108.808ZM89.6762 99.367L102.494 107.194L105.748 102.198L101.256 102.971C101.077 103 100.887 102.962 100.737 102.855C100.587 102.749 100.478 102.595 100.448 102.421L99.629 97.8402L95.007 99.0964C94.8273 99.1447 94.6376 99.1254 94.4779 99.0384C94.3182 98.9515 94.1984 98.8065 94.1485 98.6326L92.9306 94.371L89.6762 99.367Z" fill="white"/>
<path d="M5.49166 163.55C5.29201 163.55 5.10233 163.463 4.96258 163.318C4.80285 163.144 4.75294 162.893 4.82282 162.671L7.60801 154.061C7.68787 153.819 7.89751 153.636 8.15706 153.597L17.3512 152.118C17.5908 152.08 17.8304 152.167 17.9901 152.341C18.1498 152.515 18.1997 152.766 18.1299 152.988L15.3447 161.598C15.2648 161.84 15.0552 162.023 14.7956 162.062L5.60147 163.541C5.56154 163.55 5.52161 163.55 5.49166 163.55ZM8.80594 154.863L6.48994 162.023L14.1367 160.787L16.4527 153.626L8.80594 154.863Z" fill="white"/>
<path d="M17.6205 105.201L3.13551 98.2241C2.11727 97.7409 1.93758 96.0981 2.72621 94.5616C3.51485 93.0251 4.97234 92.1844 5.99058 92.6676L20.4756 99.6446C21.4938 100.137 21.6735 101.771 20.8849 103.307C20.0962 104.844 18.6388 105.694 17.6205 105.201Z" fill="white"/>
<path d="M18.2492 106.022C17.9297 106.022 17.6103 105.954 17.3108 105.81L2.82578 98.8325C1.44816 98.1658 1.12871 96.1654 2.09704 94.2714C3.07535 92.3774 4.91218 91.411 6.29979 92.0778L20.7848 99.0548C21.4836 99.393 21.9428 100.108 22.0526 101.026C22.1424 101.848 21.9528 102.766 21.5135 103.626C20.7449 105.104 19.4371 106.022 18.2492 106.022ZM17.9297 104.602C18.4987 104.882 19.5968 104.292 20.2557 103.017C20.5752 102.398 20.7149 101.722 20.655 101.171C20.6051 100.727 20.4254 100.398 20.1559 100.263L5.67087 93.2857C5.10185 93.0055 4.00375 93.595 3.34489 94.8705C2.68602 96.1461 2.86571 97.3444 3.43473 97.6246L17.9297 104.602Z" fill="white"/>
<path d="M2.72719 94.5733C3.51583 93.0369 4.97332 92.1961 5.99156 92.6793C7.0098 93.1625 7.18949 94.8053 6.40085 96.3418C5.61221 97.8782 4.15473 98.719 3.13649 98.2358C2.11824 97.743 1.93855 96.1002 2.72719 94.5733Z" fill="white"/>
<path d="M3.7544 99.0465C3.42496 99.0465 3.10552 98.9789 2.81602 98.8436C1.43839 98.1768 1.11894 96.1765 2.08727 94.2824C2.52651 93.4224 3.16541 92.7266 3.90414 92.3014C4.72272 91.8086 5.59123 91.741 6.29002 92.0695C6.98881 92.4077 7.44802 93.1228 7.55783 94.0409C7.64768 94.8622 7.458 95.7803 7.01876 96.6403C6.57952 97.5004 5.93064 98.1961 5.2019 98.6213C4.72272 98.9016 4.22359 99.0465 3.7544 99.0465ZM3.3451 94.8719C2.68624 96.1475 2.86593 97.3457 3.44493 97.626C3.71447 97.7516 4.09381 97.6936 4.49312 97.4617C4.99226 97.1718 5.45147 96.6596 5.77092 96.0412C6.09036 95.4227 6.23012 94.7463 6.17023 94.1955C6.12031 93.751 5.94062 93.4224 5.67109 93.2871C5.40155 93.1615 5.02221 93.2195 4.6229 93.4514C4.13374 93.7316 3.66455 94.2534 3.3451 94.8719Z" fill="white"/>
<path d="M45.8621 19.5217C45.7323 19.2608 45.6625 18.6906 45.6625 18.6906L44.6143 4.94922L54.6669 14.6996L54.6469 14.7093C54.8666 14.9026 55.0662 15.1248 55.196 15.3857C55.9547 16.9802 54.4772 19.2028 51.9017 20.3431C49.3161 21.4834 46.6108 21.1161 45.8621 19.5217Z" fill="white"/>
<path d="M48.9261 21.683C47.2191 21.683 45.8115 21.0259 45.2325 19.7986C45.0728 19.4604 44.9929 18.9289 44.9729 18.7646L43.9148 4.99422C43.8948 4.71399 44.0545 4.44341 44.3241 4.32745C44.5936 4.21149 44.9031 4.2598 45.1127 4.46274L55.1653 14.2131C55.2053 14.2518 55.2352 14.2905 55.2652 14.3388C55.5147 14.5804 55.6944 14.8316 55.8242 15.1022C56.2934 16.0879 56.1337 17.2571 55.375 18.3974C54.6862 19.4411 53.5481 20.3494 52.1805 20.9486C51.0624 21.4511 49.9444 21.683 48.9261 21.683ZM46.5003 19.2285C47.0793 20.4557 49.4153 20.6876 51.6015 19.7213C52.7295 19.2188 53.648 18.494 54.197 17.663C54.6862 16.9286 54.8159 16.2135 54.5464 15.6627C54.4765 15.5177 54.3567 15.3631 54.1671 15.1988C54.1172 15.1505 54.0672 15.0925 54.0273 15.0345L45.4421 6.70465L46.3506 18.6197C46.3805 18.8129 46.4504 19.1318 46.5003 19.2285Z" fill="white"/>
<path d="M49.1554 14.5614C51.731 13.4211 54.4263 13.7883 55.185 15.3827C55.9437 16.9772 54.4663 19.1998 51.8907 20.3401C49.3152 21.4804 46.6198 21.1132 45.8611 19.5187C45.1024 17.9146 46.5799 15.7016 49.1554 14.5614Z" fill="white"/>
<path d="M48.9267 21.6735C48.6372 21.6735 48.3577 21.6541 48.0881 21.6155C46.7105 21.4222 45.6823 20.7748 45.2231 19.7891C44.7539 18.8034 44.9136 17.6342 45.6723 16.4939C46.3611 15.4502 47.4992 14.5419 48.8668 13.9427C51.8417 12.6285 54.8964 13.1407 55.8248 15.1023C56.7532 17.064 55.1559 19.6345 52.1811 20.9487C51.1029 21.4319 49.9749 21.6735 48.9267 21.6735ZM49.4458 15.1796C48.3177 15.6821 47.3993 16.4069 46.8503 17.238C46.3611 17.9724 46.2313 18.6875 46.5009 19.2383C46.7604 19.7891 47.3993 20.166 48.2978 20.2916C49.306 20.4269 50.484 20.2336 51.6021 19.7311C53.7883 18.7648 55.136 16.9094 54.557 15.6725C53.968 14.4356 51.632 14.2133 49.4458 15.1796Z" fill="white"/>
<path d="M238.739 155.61L231.941 153.387L230.533 146.584L235.904 142.004L242.702 144.217L244.12 151.02L238.739 155.61Z" fill="white"/>
<path d="M238.738 156.286C238.659 156.286 238.589 156.277 238.519 156.248L231.72 154.035C231.481 153.957 231.311 153.764 231.261 153.523L229.844 146.719C229.794 146.478 229.884 146.236 230.063 146.082L235.444 141.492C235.634 141.327 235.893 141.279 236.133 141.356L242.931 143.569C243.171 143.647 243.34 143.84 243.39 144.081L244.808 150.884C244.858 151.126 244.768 151.368 244.588 151.522L239.208 156.112C239.068 156.228 238.898 156.286 238.738 156.286ZM232.549 152.875L238.579 154.846L243.35 150.778L242.093 144.738L236.063 142.767L231.291 146.835L232.549 152.875Z" fill="white"/>
<path d="M238.739 156.287C238.409 156.287 238.12 156.064 238.05 155.746L236.712 149.329L230.303 147.242C229.934 147.126 229.744 146.739 229.864 146.382C229.984 146.024 230.383 145.841 230.752 145.957L237.551 148.169C237.79 148.247 237.96 148.44 238.01 148.682L239.427 155.485C239.507 155.852 239.258 156.209 238.878 156.277C238.828 156.277 238.779 156.287 238.739 156.287Z" fill="white"/>
<path d="M237.321 149.482C237.131 149.482 236.931 149.404 236.792 149.25C236.532 148.97 236.562 148.544 236.851 148.293L242.232 143.703C242.522 143.461 242.961 143.481 243.22 143.761C243.48 144.041 243.45 144.466 243.161 144.718L237.78 149.308C237.65 149.424 237.49 149.482 237.321 149.482Z" fill="white"/>
<path d="M154.495 123.856L154.505 123.875C154.585 123.788 154.665 123.701 154.755 123.624C154.874 123.517 154.994 123.421 155.144 123.343C155.264 123.285 155.433 123.237 155.593 123.198C155.663 123.179 155.743 123.16 155.813 123.15C155.883 123.131 155.942 123.121 155.942 123.121L156.272 123.131C156.322 123.131 156.372 123.131 156.432 123.14L165.396 123.44L160.564 130.755C160.535 130.804 160.505 130.842 160.475 130.89L160.295 131.161L160.285 131.142C160.205 131.229 160.125 131.316 160.035 131.393C159.916 131.499 159.796 131.596 159.646 131.673C159.526 131.731 159.347 131.78 159.187 131.818C159.117 131.838 159.047 131.857 158.967 131.867C158.897 131.886 158.837 131.895 158.837 131.895L158.508 131.886C158.458 131.886 158.408 131.886 158.348 131.876L149.384 131.577L154.215 124.261C154.245 124.213 154.275 124.174 154.305 124.126L154.495 123.856Z" fill="white"/>
<path d="M158.847 132.552C158.837 132.552 158.827 132.552 158.827 132.552L158.497 132.542C158.398 132.542 158.338 132.542 158.278 132.532L149.383 132.242C149.134 132.233 148.904 132.097 148.784 131.885C148.664 131.672 148.674 131.411 148.814 131.208L153.646 123.893C153.646 123.883 153.706 123.806 153.706 123.806L153.905 123.497C153.955 123.42 154.025 123.352 154.095 123.304C154.155 123.246 154.215 123.178 154.285 123.13C154.384 123.033 154.564 122.888 154.804 122.762C154.804 122.762 154.814 122.762 154.814 122.753C154.963 122.675 155.153 122.608 155.423 122.55C155.552 122.511 155.642 122.492 155.722 122.482L155.802 122.463C155.852 122.453 155.922 122.444 155.962 122.453L156.291 122.463C156.391 122.463 156.451 122.463 156.501 122.473L165.405 122.772C165.655 122.782 165.885 122.917 166.004 123.13C166.124 123.342 166.114 123.603 165.974 123.806L161.143 131.112C161.143 131.112 161.113 131.16 161.083 131.208L160.883 131.508C160.833 131.585 160.763 131.653 160.694 131.701C160.634 131.769 160.574 131.827 160.504 131.885C160.354 132.03 160.194 132.146 160.015 132.233C159.995 132.242 159.975 132.252 159.965 132.262C159.825 132.329 159.635 132.397 159.376 132.465C159.246 132.503 159.166 132.513 159.076 132.532L158.986 132.552C158.937 132.552 158.887 132.552 158.847 132.552ZM150.651 130.928L158.388 131.189L158.517 131.875L158.537 131.199L158.787 131.208L158.957 131.17C159.186 131.112 159.276 131.083 159.306 131.063C159.316 131.054 159.326 131.054 159.336 131.044C159.396 131.015 159.466 130.957 159.556 130.88C159.635 130.812 159.685 130.754 159.735 130.696C159.755 130.677 159.775 130.648 159.795 130.628L159.875 130.513L159.935 130.532C159.965 130.513 160.005 130.493 160.045 130.484L159.945 130.426L164.138 124.067L156.401 123.806L156.271 123.12L156.251 123.796L156.002 123.787L155.832 123.825C155.582 123.883 155.493 123.922 155.473 123.932C155.473 123.932 155.463 123.932 155.463 123.941C155.393 123.98 155.323 124.028 155.233 124.115C155.153 124.183 155.103 124.241 155.053 124.299C155.033 124.318 155.013 124.347 154.993 124.367L154.914 124.483L154.864 124.463C154.824 124.483 154.794 124.502 154.754 124.512L154.864 124.579L150.651 130.928Z" fill="white"/>
<path d="M158.647 132.557C158.018 132.557 157.359 132.373 156.69 132.006C155.632 131.426 154.684 130.431 154.015 129.203C153.356 127.976 153.046 126.662 153.146 125.483C153.256 124.198 153.845 123.222 154.803 122.738C155.143 122.565 155.572 122.69 155.752 123.019C155.931 123.347 155.802 123.763 155.462 123.937C154.764 124.294 154.594 125.135 154.554 125.599C154.474 126.517 154.724 127.58 155.263 128.575C155.802 129.571 156.56 130.373 157.389 130.827C157.808 131.059 158.627 131.397 159.326 131.039C159.665 130.865 160.084 130.991 160.274 131.329C160.454 131.658 160.324 132.064 159.984 132.247C159.565 132.46 159.116 132.557 158.647 132.557Z" fill="white"/>
<path d="M41.9586 134.347L45.7321 121.166L40.3913 123.128L39.423 115.648L35.5996 128.665L40.8306 126.742L41.9586 134.347Z" fill="white"/>
<path d="M41.9584 135.022C41.9384 135.022 41.9284 135.022 41.9084 135.022C41.579 135.002 41.3095 134.761 41.2596 134.442L40.2613 127.677L35.8389 129.301C35.5893 129.398 35.3098 129.34 35.1202 129.166C34.9305 128.992 34.8506 128.731 34.9205 128.48L38.7539 115.463C38.8437 115.154 39.1532 114.951 39.4826 114.97C39.8121 114.999 40.0816 115.241 40.1215 115.559L40.9701 122.189L45.4823 120.536C45.7318 120.449 46.0114 120.498 46.201 120.671C46.3907 120.845 46.4706 121.106 46.4007 121.358L42.6272 134.538C42.5473 134.819 42.2678 135.022 41.9584 135.022ZM40.8303 126.064C40.9501 126.064 41.0799 126.093 41.1897 126.16C41.3694 126.267 41.4991 126.441 41.5291 126.643L42.178 131.05L44.6936 122.276L40.6306 123.764C40.431 123.841 40.2014 123.812 40.0217 123.715C39.842 123.609 39.7122 123.426 39.6923 123.223L39.1532 119.048L36.6475 127.561L40.5807 126.122C40.6606 126.083 40.7504 126.064 40.8303 126.064Z" fill="white"/>
<path d="M131.104 107.55C131.104 107.55 130.215 105.279 128.868 102.032C127.46 98.6498 129.167 96.3112 131.333 95.8764C133.769 95.3835 135.267 97.3839 135.586 99.4712C137.573 98.5725 140.118 98.6884 141.037 100.93C141.855 102.931 140.777 105.588 137.094 106.323C133.55 107.018 131.104 107.55 131.104 107.55Z" fill="white"/>
<path d="M131.104 108.227C130.815 108.227 130.555 108.054 130.456 107.793C130.456 107.793 129.567 105.522 128.219 102.284C127.471 100.477 127.471 98.738 128.229 97.3754C128.848 96.2545 129.927 95.4717 131.194 95.2108C132.282 94.9886 133.321 95.1818 134.189 95.7616C135.088 96.3608 135.756 97.3561 136.106 98.5544C137.324 98.1775 138.552 98.1775 139.57 98.564C140.548 98.9409 141.287 99.6753 141.696 100.68C142.175 101.85 142.096 103.154 141.467 104.265C140.708 105.628 139.201 106.585 137.234 106.981C133.71 107.677 131.264 108.208 131.264 108.218C131.204 108.227 131.154 108.227 131.104 108.227ZM132.063 96.4767C131.873 96.4767 131.674 96.4961 131.474 96.5347C130.615 96.7087 129.877 97.2498 129.457 98.0132C128.898 99.0182 128.918 100.361 129.517 101.782C130.476 104.082 131.204 105.899 131.544 106.768C132.472 106.565 134.439 106.15 136.954 105.657C138.512 105.348 139.67 104.633 140.239 103.628C140.668 102.864 140.718 101.975 140.398 101.183C140.129 100.526 139.68 100.072 139.051 99.8299C138.182 99.4917 137.004 99.5884 135.886 100.091C135.687 100.178 135.457 100.178 135.257 100.072C135.068 99.9749 134.928 99.7913 134.898 99.5787C134.718 98.4094 134.149 97.3948 133.381 96.8826C132.991 96.612 132.552 96.4767 132.063 96.4767Z" fill="white"/>
<path d="M102.185 70.2314C99.0405 70.2314 96.445 67.7962 96.3651 64.7329C96.2852 61.6213 98.8408 59.0411 102.045 58.9638C103.613 58.9155 105.08 59.476 106.198 60.5196C107.326 61.5536 107.965 62.9548 108.005 64.4623C108.085 67.5739 105.539 70.1541 102.325 70.2314C102.285 70.2314 102.235 70.2314 102.185 70.2314ZM102.185 60.3167C102.145 60.3167 102.115 60.3167 102.075 60.3167C100.897 60.3457 99.7892 60.8192 98.9806 61.6406C98.162 62.4716 97.7327 63.554 97.7627 64.7039C97.8226 67.0618 99.8291 68.9462 102.295 68.8785C104.731 68.8205 106.667 66.8492 106.607 64.4913C106.558 62.1624 104.581 60.3167 102.185 60.3167Z" fill="white"/>
<path d="M75.131 86.6947C75.0112 86.6947 74.8914 86.6657 74.7816 86.6077C73.1045 85.68 71.8966 84.1822 71.3775 82.3751C70.8683 80.568 71.1079 78.6837 72.0563 77.0602C73.0146 75.4368 74.562 74.2675 76.4287 73.765C78.2955 73.2625 80.2422 73.5041 81.9193 74.4221C82.2587 74.6057 82.3685 75.0212 82.1788 75.3401C81.9891 75.6687 81.5599 75.775 81.2305 75.5914C79.8728 74.8473 78.2955 74.654 76.7981 75.0599C75.3007 75.4658 74.0429 76.4031 73.2742 77.7173C71.6869 80.4231 72.6652 83.8826 75.4704 85.4191C75.8098 85.6027 75.9196 86.0182 75.7299 86.3371C75.6102 86.569 75.3706 86.6947 75.131 86.6947Z" fill="white"/>
<path d="M114.762 133.226C114.682 133.226 114.603 133.216 114.523 133.187C114.163 133.062 113.974 132.675 114.103 132.318C115.062 129.738 117.008 127.67 119.574 126.5C122.14 125.331 125.025 125.205 127.69 126.133C128.049 126.259 128.239 126.645 128.109 127.003C127.979 127.351 127.58 127.534 127.211 127.409C124.895 126.607 122.389 126.713 120.163 127.728C117.937 128.742 116.25 130.54 115.411 132.782C115.311 133.052 115.052 133.226 114.762 133.226Z" fill="white"/>
<path d="M242.742 16.4519C242.512 16.4519 242.282 16.336 242.153 16.133L234.256 4.08274C234.047 3.76385 234.147 3.34832 234.476 3.14539C234.805 2.94245 235.235 3.03909 235.444 3.35798L243.341 15.4083C243.55 15.7272 243.45 16.1427 243.121 16.3456C243.001 16.4229 242.871 16.4519 242.742 16.4519Z" fill="white"/>
<path d="M75.6707 118.403C75.5609 118.403 75.4511 118.374 75.3412 118.326L64.0208 112.46C63.6814 112.286 63.5516 111.871 63.7313 111.542C63.911 111.214 64.3402 111.088 64.6796 111.262L76.0001 117.128C76.3395 117.302 76.4693 117.717 76.2896 118.046C76.1598 118.268 75.9202 118.403 75.6707 118.403Z" fill="white"/>
<path d="M66.9762 120.945C66.8664 120.945 66.7566 120.916 66.6468 120.868C66.3073 120.694 66.1776 120.278 66.3573 119.95L72.4168 108.991C72.5965 108.663 73.0257 108.537 73.3652 108.711C73.7046 108.885 73.8343 109.301 73.6547 109.629L67.5951 120.587C67.4653 120.81 67.2257 120.945 66.9762 120.945Z" fill="white"/>
<path d="M92.6116 133.365C92.4419 133.365 92.2822 133.307 92.1424 133.191C91.8529 132.939 91.8329 132.514 92.0825 132.234L94.4384 129.683C94.698 129.403 95.1372 129.374 95.4267 129.625C95.7162 129.876 95.7362 130.301 95.4866 130.581L93.1307 133.133C93.0009 133.287 92.8012 133.365 92.6116 133.365Z" fill="white"/>
<path d="M84.8147 141.818C84.645 141.818 84.4853 141.76 84.3455 141.644C84.056 141.392 84.036 140.967 84.2856 140.687L86.6416 138.136C86.9011 137.856 87.3403 137.836 87.6298 138.078C87.9193 138.329 87.9393 138.754 87.6897 139.035L85.3338 141.586C85.1941 141.74 85.0044 141.818 84.8147 141.818Z" fill="white"/>
<path d="M97.3535 137.818C97.3036 137.818 97.2537 137.818 97.2137 137.808L93.7497 137.112C93.3704 137.035 93.1308 136.677 93.2107 136.31C93.2905 135.943 93.6599 135.711 94.0392 135.788L97.5032 136.484C97.8826 136.561 98.1222 136.919 98.0423 137.286C97.9724 137.595 97.6829 137.818 97.3535 137.818Z" fill="white"/>
<path d="M85.8935 135.509C85.8436 135.509 85.7937 135.509 85.7538 135.499L82.2898 134.804C81.9104 134.726 81.6708 134.369 81.7507 134.002C81.8306 133.634 82.1999 133.402 82.5793 133.48L86.0433 134.175C86.4226 134.253 86.6622 134.61 86.5824 134.978C86.5125 135.287 86.223 135.509 85.8935 135.509Z" fill="white"/>
<path d="M92.2814 143.327C91.9919 143.327 91.7124 143.143 91.6126 142.863L90.5045 139.607C90.3847 139.249 90.5843 138.872 90.9537 138.756C91.3231 138.64 91.7124 138.834 91.8322 139.191L92.9403 142.448C93.0601 142.805 92.8604 143.182 92.491 143.298C92.4212 143.308 92.3513 143.327 92.2814 143.327Z" fill="white"/>
<path d="M88.6173 132.561C88.3278 132.561 88.0483 132.378 87.9485 132.098L86.8404 128.841C86.7206 128.484 86.9203 128.107 87.2896 127.991C87.659 127.875 88.0483 128.068 88.1681 128.426L89.2762 131.682C89.396 132.04 89.1964 132.417 88.827 132.532C88.7571 132.552 88.6872 132.561 88.6173 132.561Z" fill="white"/>
<path d="M59.5884 59.3036C59.5684 59.3036 59.5484 59.3036 59.5285 59.3036C59.1491 59.265 58.8596 58.9364 58.8995 58.5692L59.818 48.8961L49.8152 48.007C49.4359 47.9684 49.1464 47.6398 49.1863 47.2726C49.2262 46.8958 49.5557 46.6252 49.945 46.6638L60.6365 47.6108C61.0159 47.6495 61.3054 47.9781 61.2655 48.3453L60.2871 58.6948C60.2572 59.0427 59.9477 59.3036 59.5884 59.3036Z" fill="white"/>
<path d="M207.253 41.5881C207.193 41.5881 207.133 41.5784 207.073 41.5688L199.087 39.5201C198.857 39.4622 198.678 39.2979 198.598 39.0756C198.528 38.863 198.568 38.6214 198.718 38.4378L202.771 33.5191L195.813 31.7314C195.443 31.6348 195.214 31.2676 195.313 30.9003C195.413 30.5428 195.783 30.3205 196.172 30.4172L204.158 32.4658C204.388 32.5238 204.567 32.6881 204.647 32.9103C204.717 33.1229 204.677 33.3645 204.528 33.5481L200.475 38.4668L207.433 40.2546C207.802 40.3512 208.031 40.7184 207.932 41.0856C207.842 41.3852 207.562 41.5881 207.253 41.5881Z" fill="white"/>
<path d="M127.939 80.3192C127.78 80.3192 127.62 80.2709 127.49 80.1646L121.87 75.6325C121.57 75.3909 121.53 74.9657 121.78 74.6758C122.03 74.3859 122.469 74.3472 122.768 74.5888L127.85 78.6958L132.092 73.7771C132.342 73.4872 132.781 73.4485 133.081 73.6901L138.162 77.7971L142.404 72.8784C142.654 72.5885 143.093 72.5498 143.393 72.7914C143.692 73.033 143.732 73.4582 143.483 73.7481L138.801 79.1886C138.551 79.4785 138.112 79.5172 137.812 79.2756L132.731 75.1686L128.488 80.0873C128.339 80.2419 128.139 80.3192 127.939 80.3192Z" fill="white"/>
<path d="M36.648 101.601C36.3186 101.601 36.0291 101.378 35.9592 101.059C35.8794 100.692 36.1289 100.335 36.5083 100.267L42.9671 99.0204L41.6794 92.7682C41.5995 92.401 41.8491 92.0434 42.2284 91.9758L48.6873 90.7292L47.3995 84.477C47.3196 84.1098 47.5692 83.7522 47.9485 83.6846L54.4074 82.438L53.1196 76.1857C53.0398 75.8185 53.2893 75.461 53.6687 75.3933C54.048 75.316 54.4174 75.5576 54.4873 75.9248L55.9148 82.8438C55.9947 83.211 55.7451 83.5686 55.3657 83.6362L48.9069 84.8828L50.1947 91.1351C50.2745 91.5023 50.025 91.8598 49.6456 91.9275L43.1868 93.1741L44.4745 99.4263C44.5544 99.7935 44.3048 100.151 43.9255 100.219L36.7778 101.601C36.7379 101.601 36.698 101.601 36.648 101.601Z" fill="white"/>
<path d="M174.031 99.3582C173.971 99.3582 173.911 99.3485 173.852 99.3389L164.158 96.8457C163.789 96.7491 163.559 96.3819 163.659 96.0146L166.235 86.6314C166.285 86.4575 166.404 86.3126 166.564 86.2159C166.724 86.1289 166.914 86.1 167.093 86.1483L176.786 88.6414C177.156 88.7381 177.385 89.1053 177.286 89.4725L174.71 98.8557C174.62 99.1649 174.341 99.3582 174.031 99.3582ZM165.196 95.7054L173.542 97.8507L175.758 89.7721L167.413 87.6268L165.196 95.7054Z" fill="white"/>
<path d="M221.139 131.312C220.919 131.312 220.7 131.264 220.5 131.158C219.821 130.81 219.562 129.998 219.911 129.341C220.081 129.022 220.37 128.79 220.73 128.684C221.089 128.577 221.458 128.606 221.788 128.771C222.117 128.935 222.357 129.215 222.467 129.563C222.576 129.901 222.546 130.269 222.377 130.587C222.127 131.051 221.648 131.312 221.139 131.312ZM221.139 129.959V129.969L221.758 130.269L221.139 129.959Z" fill="white"/>
<path d="M229.505 46.3138L223.275 40.854L229.395 40.2645L228.816 34.8723H234.386L234.346 28.8906L240.576 34.3505L229.505 46.3138Z" fill="white"/>
<path d="M229.504 46.9875C229.335 46.9875 229.165 46.9295 229.035 46.8135L222.806 41.3537C222.596 41.1701 222.526 40.8899 222.606 40.6386C222.696 40.3874 222.926 40.2037 223.205 40.1748L228.616 39.6529L228.107 34.9372C228.087 34.7439 228.147 34.5603 228.287 34.4153C228.416 34.2704 228.606 34.1931 228.806 34.1931H233.677L233.647 28.8879C233.647 28.6173 233.807 28.3757 234.067 28.2694C234.316 28.1631 234.616 28.2018 234.815 28.3854L241.045 33.8452C241.334 34.0965 241.354 34.5216 241.094 34.8019L230.024 46.7652C229.904 46.9005 229.724 46.9778 229.534 46.9875C229.534 46.9875 229.524 46.9875 229.504 46.9875ZM224.912 41.373L229.455 45.3544L239.587 34.396L235.055 30.4147L235.085 34.8599C235.085 35.0435 235.015 35.2174 234.885 35.343C234.755 35.4687 234.576 35.546 234.386 35.546H229.594L230.093 40.1941C230.113 40.3777 230.053 40.5516 229.944 40.6966C229.824 40.8319 229.654 40.9285 229.474 40.9382L224.912 41.373Z" fill="white"/>
<path d="M243.741 112.499C243.701 112.499 243.671 112.499 243.631 112.489L234.347 111.04C234.088 111.001 233.868 110.818 233.788 110.576L230.943 101.898C230.873 101.676 230.923 101.425 231.083 101.251C231.242 101.077 231.482 100.99 231.722 101.029L241.006 102.488C241.265 102.526 241.475 102.71 241.555 102.952L244.4 111.629C244.47 111.852 244.42 112.103 244.26 112.277C244.14 112.412 243.941 112.499 243.741 112.499ZM234.996 109.774L242.733 110.982L240.357 103.744L232.62 102.536L234.996 109.774Z" fill="white"/>
<path d="M170.157 18.0121L185.271 16.1277C186.329 15.9924 187.357 17.181 187.567 18.7851C187.777 20.3796 187.098 21.7905 186.04 21.9161L170.926 23.8005C169.868 23.9357 168.839 22.7471 168.63 21.143C168.42 19.5485 169.099 18.1473 170.157 18.0121Z" fill="white"/>
<path d="M170.766 24.4951C169.398 24.4951 168.19 23.1229 167.931 21.2385C167.811 20.3398 167.931 19.4508 168.28 18.7454C168.67 17.953 169.318 17.4408 170.067 17.3442L185.181 15.4598C186.649 15.2859 187.996 16.6967 188.266 18.6971C188.386 19.5958 188.266 20.4848 187.916 21.1902C187.527 21.9826 186.878 22.4948 186.129 22.5914L171.015 24.4758C170.936 24.4855 170.846 24.4951 170.766 24.4951ZM185.431 16.7934C185.411 16.7934 185.381 16.7934 185.361 16.7934L170.247 18.6777C169.987 18.7067 169.728 18.9386 169.548 19.3155C169.318 19.789 169.239 20.4171 169.318 21.0549C169.488 22.3305 170.257 23.1906 170.836 23.1326L185.95 21.2482C186.209 21.2192 186.469 20.9873 186.649 20.6104C186.878 20.1369 186.958 19.5088 186.878 18.871C186.718 17.6437 186 16.7934 185.431 16.7934Z" fill="white"/>
<path d="M187.576 18.7837C187.786 20.3879 187.107 21.7891 186.049 21.9147C184.991 22.05 183.962 20.8614 183.753 19.2572C183.543 17.6531 184.222 16.2519 185.28 16.1263C186.338 16.0007 187.367 17.1893 187.576 18.7837Z" fill="white"/>
<path d="M185.889 22.6107C185.22 22.6107 184.561 22.2822 184.042 21.6831C183.523 21.0839 183.174 20.2529 183.054 19.3542C182.934 18.4555 183.054 17.5664 183.403 16.861C183.793 16.0686 184.441 15.5564 185.19 15.4598C186.658 15.2859 188.005 16.6967 188.275 18.6971C188.395 19.5958 188.275 20.4848 187.925 21.1902C187.536 21.9826 186.887 22.4948 186.139 22.5914C186.059 22.6011 185.969 22.6107 185.889 22.6107ZM185.43 16.7934C185.41 16.7934 185.38 16.7934 185.36 16.7934C185.1 16.8223 184.841 17.0543 184.661 17.4311C184.431 17.9047 184.352 18.5328 184.431 19.1706C184.521 19.8083 184.761 20.3978 185.11 20.8037C185.38 21.1226 185.699 21.2869 185.949 21.2482C186.208 21.2192 186.468 20.9873 186.648 20.6104C186.877 20.1369 186.957 19.5088 186.877 18.871C186.718 17.6437 185.999 16.7934 185.43 16.7934Z" fill="white"/>
<path d="M204.878 86.6007C205.137 86.4557 205.716 86.3494 205.716 86.3494L219.712 84.3008L210.478 94.6986L210.468 94.6793C210.288 94.9112 210.079 95.1142 209.809 95.2495C208.232 96.0902 205.846 94.8436 204.488 92.4567C203.131 90.0698 203.3 87.4511 204.878 86.6007Z" fill="white"/>
<path d="M208.721 96.1843C208.391 96.1843 208.042 96.136 207.693 96.0394C206.235 95.6335 204.808 94.4159 203.879 92.7828C202.302 90.0287 202.591 87.0524 204.538 86.0087C204.867 85.8348 205.417 85.7188 205.576 85.6802L219.602 83.6315C219.892 83.5929 220.181 83.7282 220.321 83.9698C220.461 84.221 220.431 84.5206 220.241 84.7428L211.007 95.1407C210.967 95.1793 210.927 95.218 210.887 95.247C210.657 95.5079 210.418 95.7012 210.148 95.8365C209.719 96.0684 209.24 96.1843 208.721 96.1843ZM205.217 87.1973C203.999 87.8545 203.949 90.106 205.107 92.1354C205.856 93.4496 206.994 94.4449 208.092 94.7542C208.461 94.8605 209 94.9281 209.49 94.6672C209.639 94.5899 209.779 94.4643 209.929 94.271C209.979 94.213 210.029 94.1647 210.088 94.126L217.965 85.255L205.836 87.0331C205.636 87.0524 205.317 87.1394 205.217 87.1973Z" fill="white"/>
<path d="M210.208 89.391C211.576 91.7778 211.396 94.3966 209.819 95.247C208.242 96.0877 205.856 94.8411 204.498 92.4543C203.13 90.0674 203.31 87.4486 204.887 86.5982C206.455 85.7575 208.841 87.0041 210.208 89.391Z" fill="white"/>
<path d="M208.721 96.1832C208.391 96.1832 208.042 96.1349 207.693 96.0383C206.235 95.6324 204.808 94.4148 203.879 92.7817C202.302 90.0276 202.591 87.0513 204.538 86.0076C205.516 85.4858 206.734 85.5438 207.952 86.1912C209.07 86.7807 210.088 87.805 210.817 89.0709C212.394 91.825 212.105 94.8013 210.158 95.845C209.719 96.0672 209.24 96.1832 208.721 96.1832ZM205.976 87.0126C205.696 87.0126 205.437 87.0706 205.217 87.1962C203.999 87.8437 203.949 90.1049 205.097 92.1342C205.846 93.4484 206.984 94.4438 208.082 94.753C208.451 94.8593 208.99 94.927 209.48 94.666C210.697 94.0186 210.747 91.7573 209.599 89.728C209 88.6844 208.182 87.8533 207.293 87.3895C206.824 87.1382 206.375 87.0126 205.976 87.0126Z" fill="white"/>
<path d="M104.421 30.4225L111.738 29.9297L115.831 35.8147L112.626 42.1926L105.309 42.6854L101.206 36.8004L104.421 30.4225Z" fill="white"/>
<path d="M105.309 43.3607C105.08 43.3607 104.86 43.2447 104.73 43.0611L100.627 37.1761C100.487 36.9732 100.467 36.7219 100.577 36.4997L103.792 30.1218C103.902 29.8995 104.121 29.7643 104.371 29.7449L111.688 29.2521C111.948 29.2328 112.177 29.3487 112.317 29.5517L116.42 35.4367C116.56 35.6396 116.58 35.8909 116.47 36.1131L113.255 42.491C113.146 42.7133 112.926 42.8485 112.676 42.8679L105.359 43.3607C105.339 43.3607 105.329 43.3607 105.309 43.3607ZM102.015 36.7413L105.669 41.9788L112.177 41.5343L115.042 35.8522L111.389 30.6146L104.88 31.0592L102.015 36.7413Z" fill="white"/>
<path d="M108.524 36.9807C108.295 36.9807 108.075 36.8647 107.945 36.6811L103.842 30.7961C103.623 30.4868 103.713 30.0616 104.032 29.8587C104.352 29.6558 104.791 29.7331 105 30.0423L108.874 35.5988L115.782 35.135C116.171 35.106 116.501 35.3862 116.531 35.7631C116.56 36.14 116.271 36.4588 115.882 36.4878L108.564 36.9807C108.554 36.9807 108.534 36.9807 108.524 36.9807Z" fill="white"/>
<path d="M105.309 43.3578C105.209 43.3578 105.1 43.3385 105 43.2902C104.65 43.1259 104.511 42.72 104.68 42.3818L107.895 36.0039C108.065 35.6657 108.484 35.5304 108.833 35.6947C109.183 35.859 109.322 36.2648 109.153 36.6031L105.938 42.9809C105.818 43.2225 105.569 43.3578 105.309 43.3578Z" fill="white"/>
<path d="M29.7289 67.0129L29.7089 66.9935C29.669 67.0998 29.6191 67.1965 29.5592 67.2931C29.4793 67.4187 29.3994 67.5444 29.2896 67.6507C29.1998 67.7376 29.05 67.8343 28.9203 67.9116C28.8604 67.9502 28.8005 67.9889 28.7306 68.0179C28.6707 68.0469 28.6208 68.0758 28.6208 68.0758L28.3213 68.1531C28.2714 68.1628 28.2314 68.1821 28.1716 68.1918L19.9258 70.3371L22.2218 62.3744C22.2318 62.3261 22.2518 62.2778 22.2618 62.2295L22.3416 61.9396L22.3616 61.9589C22.4015 61.8526 22.4514 61.756 22.5113 61.6593C22.5912 61.5337 22.671 61.4081 22.7809 61.3018C22.8707 61.2148 23.0204 61.1182 23.1502 61.0409C23.2101 61.0022 23.27 60.9636 23.3399 60.9346C23.4098 60.9056 23.4597 60.8862 23.4597 60.8862L23.7592 60.8089C23.8091 60.7993 23.849 60.7799 23.8989 60.7703L32.1447 58.625L29.8487 66.5877C29.8387 66.636 29.8187 66.6843 29.8087 66.7326L29.7289 67.0129Z" fill="white"/>
<path d="M19.9269 71.0114C19.7472 71.0114 19.5675 70.9437 19.4277 70.8085C19.248 70.6345 19.1882 70.3833 19.248 70.1513L21.5441 62.1887C21.5441 62.179 21.574 62.092 21.574 62.0824L21.6639 61.7538C21.6938 61.6669 21.7338 61.5895 21.7837 61.5219C21.8236 61.4446 21.8635 61.3769 21.9035 61.3093C22.0033 61.1354 22.1231 60.9807 22.2529 60.8455C22.2628 60.8358 22.2728 60.8261 22.2728 60.8165C22.3926 60.7005 22.5523 60.5942 22.772 60.4589C22.8818 60.3913 22.9517 60.3526 23.0215 60.3236L23.0914 60.285C23.1413 60.256 23.1912 60.2367 23.2412 60.227L23.5406 60.1497C23.6305 60.1207 23.6804 60.111 23.7403 60.1014L31.9262 57.9658C32.1658 57.9078 32.4253 57.9754 32.605 58.1397C32.7847 58.3136 32.8446 58.5649 32.7847 58.7968L30.4887 66.7595C30.4887 66.7691 30.4587 66.8561 30.4587 66.8658L30.3589 67.1943C30.3289 67.2813 30.289 67.3586 30.2391 67.4263C30.1991 67.5036 30.1592 67.5712 30.1193 67.6389C30.0195 67.8128 29.8997 67.9674 29.7699 68.093C29.7599 68.1027 29.7499 68.1124 29.7399 68.122C29.6201 68.2283 29.4704 68.3443 29.2408 68.4796C29.131 68.5472 29.0611 68.5859 28.9912 68.6245L28.9513 68.6728C28.9014 68.7018 28.8515 68.7212 28.8016 68.7308L28.5021 68.8081C28.4122 68.8371 28.3623 68.8468 28.3024 68.8564L20.1165 70.9921C20.0567 71.0017 19.9968 71.0114 19.9269 71.0114ZM22.8019 62.4882L22.9117 62.5172L20.9351 69.3783L27.993 67.5422L28.3224 68.1607L28.1427 67.5036L28.5021 67.3683C28.6917 67.2523 28.7716 67.204 28.7916 67.1847L28.8016 67.175C28.8515 67.1267 28.9014 67.0591 28.9613 66.9624C29.0112 66.8851 29.0411 66.8175 29.0711 66.7498C29.0811 66.7208 29.0911 66.7015 29.111 66.6725L29.151 66.5469L29.2009 66.5566C29.2308 66.5276 29.2508 66.4986 29.2807 66.4792L29.1709 66.4503L31.1475 59.5892L23.5806 61.5895C23.3809 61.7055 23.311 61.7635 23.2911 61.7828L23.2811 61.7925C23.2312 61.8408 23.1813 61.9084 23.1214 62.0051C23.0714 62.0824 23.0415 62.15 23.0116 62.2177C23.0016 62.2467 22.9916 62.266 22.9716 62.295L22.9317 62.4206L22.8818 62.4109C22.8618 62.4399 22.8319 62.4689 22.8019 62.4882Z" fill="white"/>
<path d="M29.2899 68.3381C29.1102 68.3381 28.9305 68.2704 28.7908 68.1351C28.5212 67.8742 28.5212 67.4394 28.7908 67.1785C29.3099 66.676 29.23 65.8836 29.1302 65.4487C28.9405 64.5983 28.4114 63.7093 27.6328 62.9459C26.8541 62.1921 25.9457 61.6606 25.0672 61.477C24.618 61.3804 23.7994 61.2934 23.2803 61.7959C23.0008 62.0568 22.5615 62.0568 22.292 61.7959C22.0225 61.535 22.0225 61.1002 22.292 60.8392C23.0307 60.1338 24.1188 59.8922 25.3767 60.1628C26.5147 60.4141 27.6727 61.0615 28.6311 61.9989C29.5894 62.9362 30.2582 64.0668 30.4978 65.1685C30.7674 66.3861 30.5078 67.4394 29.7691 68.1448C29.6393 68.2704 29.4696 68.3381 29.2899 68.3381Z" fill="white"/>
<path d="M176.416 45.0938L167.212 54.8828L172.722 55.4433L170.177 62.314L179.351 52.6795L173.96 52.1384L176.416 45.0938Z" fill="white"/>
<path d="M170.177 62.9947C170.057 62.9947 169.927 62.9657 169.818 62.8981C169.528 62.7338 169.408 62.3956 169.518 62.096L171.764 56.037L167.142 55.5635C166.883 55.5345 166.653 55.3703 166.563 55.1287C166.473 54.8871 166.523 54.6262 166.703 54.4329L175.907 44.6438C176.127 44.4023 176.496 44.3539 176.776 44.5182C177.065 44.6825 177.195 45.0111 177.085 45.3203L174.909 51.5629L179.431 52.0267C179.691 52.0557 179.92 52.22 180.01 52.4616C180.1 52.7032 180.05 52.9737 179.87 53.1573L170.696 62.7821C170.556 62.9174 170.367 62.9947 170.177 62.9947ZM168.66 54.3556L172.792 54.7808C173.002 54.8001 173.202 54.9161 173.312 55.09C173.421 55.264 173.451 55.4862 173.381 55.6795L172.004 59.4096L177.904 53.2153L173.901 52.8095C173.691 52.7901 173.501 52.6742 173.381 52.5002C173.262 52.3263 173.242 52.1137 173.312 51.9204L174.699 47.9391L168.66 54.3556Z" fill="white"/>
<path d="M89.0168 168.894C89.0168 168.894 86.7407 167.57 83.4364 165.724C79.9924 163.801 79.8227 160.786 81.3301 159.056C83.0171 157.104 85.6127 157.819 87.2898 159.356C88.338 157.355 90.5242 155.838 92.7903 157.123C94.8168 158.264 95.7152 161.153 93.1497 164.091C90.6939 166.903 89.0168 168.894 89.0168 168.894Z" fill="white"/>
<path d="M89.0179 169.573C88.8981 169.573 88.7683 169.544 88.6585 169.477C88.6385 169.467 86.3525 168.133 83.0981 166.317C81.2712 165.302 80.1032 163.862 79.8137 162.258C79.5742 160.953 79.9335 159.63 80.812 158.625C81.5607 157.755 82.539 157.272 83.6371 157.204C84.7852 157.136 86.023 157.542 87.1211 158.325C87.8798 157.233 88.8981 156.441 90.0062 156.131C91.0643 155.832 92.1524 155.967 93.1607 156.537C94.3287 157.194 95.1373 158.325 95.3669 159.629C95.6464 161.234 95.0574 162.963 93.6898 164.529C91.254 167.302 89.5769 169.303 89.5569 169.322C89.4272 169.486 89.2175 169.573 89.0179 169.573ZM83.8667 158.557C83.8168 158.557 83.7569 158.557 83.707 158.557C82.9883 158.596 82.3693 158.914 81.8702 159.494C81.2612 160.19 81.0117 161.118 81.1814 162.026C81.401 163.224 82.3294 164.326 83.7869 165.147C86.1528 166.462 87.9996 167.525 88.8581 168.017C89.4871 167.273 90.8647 165.659 92.6216 163.649C93.7098 162.403 94.1989 161.06 93.9793 159.861C93.8196 158.953 93.2605 158.17 92.4419 157.706C91.7631 157.32 91.0743 157.233 90.3855 157.426C89.4272 157.697 88.5087 158.538 87.9198 159.659C87.8199 159.852 87.6303 159.977 87.4206 160.016C87.201 160.055 86.9814 159.987 86.8216 159.842C85.9132 159.03 84.8251 158.557 83.8667 158.557Z" fill="white"/>
<path d="M13.5072 38.9108C13.4473 38.9108 13.3774 38.9011 13.3076 38.8818C12.9382 38.7755 12.7186 38.3986 12.8284 38.0411C12.9981 37.4806 12.9282 36.9008 12.6387 36.3886C12.3492 35.8765 11.87 35.5093 11.301 35.3546C10.722 35.1904 10.1231 35.258 9.59397 35.5382C9.06488 35.8185 8.68554 36.2823 8.52581 36.8331C8.416 37.1907 8.02668 37.4033 7.65731 37.297C7.28795 37.1907 7.07831 36.8138 7.17814 36.4563C7.44768 35.5479 8.06661 34.8038 8.91514 34.3496C9.76368 33.8955 10.752 33.7892 11.6804 34.0501C12.6188 34.311 13.3874 34.9101 13.8566 35.7315C14.3258 36.5529 14.4356 37.5096 14.1661 38.4083C14.0862 38.7175 13.8067 38.9108 13.5072 38.9108Z" fill="white"/>
<path d="M13.2385 44.7591C13.1786 44.7591 13.1087 44.7494 13.0388 44.7301C11.0223 44.1599 9.30527 43.0486 8.19718 41.5895C7.01922 40.024 6.64985 38.2073 7.16896 36.4678C7.27877 36.1103 7.6681 35.8977 8.03746 36.004C8.40682 36.1103 8.62644 36.4872 8.51663 36.8447C8.00751 38.5455 8.67636 39.937 9.32524 40.7971C10.2536 42.0147 11.7011 42.952 13.4282 43.4352C13.7975 43.5415 14.0171 43.9184 13.9073 44.2759C13.8275 44.5658 13.5479 44.7591 13.2385 44.7591Z" fill="white"/>
<path d="M7.46757 42.7758C6.55914 42.7758 5.61078 42.6502 4.65243 42.3796C4.28307 42.2733 4.07343 41.8964 4.17326 41.5389C4.28307 41.1813 4.6724 40.9687 5.04176 41.075C8.66551 42.0897 12.0097 40.7851 12.8283 38.0504C12.9381 37.6928 13.3275 37.4899 13.6968 37.5865C14.0662 37.6928 14.2858 38.0697 14.176 38.4272C13.3574 41.1427 10.692 42.7758 7.46757 42.7758Z" fill="white"/>
<path d="M4.85221 42.3978C4.79232 42.3978 4.72244 42.3882 4.65256 42.3688C3.65428 42.0886 2.7159 41.6344 1.88733 41.0256C1.57786 40.8034 1.51797 40.3782 1.74757 40.0786C1.97718 39.779 2.41642 39.7211 2.72588 39.9433C3.42468 40.4555 4.20333 40.8324 5.04189 41.0643C5.41125 41.1706 5.63087 41.5474 5.52106 41.905C5.43122 42.2046 5.1517 42.3978 4.85221 42.3978Z" fill="white"/>
<path d="M21.893 41.2702C21.8331 41.2702 21.7632 41.2605 21.6933 41.2412C21.3239 41.1349 21.1143 40.758 21.2141 40.4004C21.3838 39.84 21.314 39.2602 21.0245 38.748C20.735 38.2358 20.2558 37.8686 19.6868 37.714C19.1078 37.5497 18.5088 37.6174 17.9797 37.8976C17.4506 38.1779 17.0713 38.6417 16.9116 39.1925C16.8017 39.5501 16.4124 39.7627 16.0431 39.6564C15.6737 39.5501 15.4641 39.1732 15.5639 38.8156C15.8334 37.9073 16.4523 37.1632 17.3009 36.709C18.1494 36.2548 19.1377 36.1485 20.0661 36.4094C21.0045 36.6704 21.7732 37.2695 22.2424 38.0909C22.7115 38.9123 22.8214 39.869 22.5518 40.7677C22.4819 41.0769 22.2024 41.2702 21.893 41.2702Z" fill="white"/>
<path d="M21.6337 47.1072C21.5639 47.1072 21.504 47.0976 21.4341 47.0782C17.0516 45.851 14.526 42.2948 15.5742 38.816C15.684 38.4584 16.0733 38.2555 16.4427 38.3522C16.812 38.4584 17.0217 38.8353 16.9219 39.1929C16.1033 41.9373 18.2096 44.7687 21.8334 45.7833C22.2027 45.8896 22.4124 46.2665 22.3126 46.6241C22.2127 46.914 21.9332 47.1072 21.6337 47.1072Z" fill="white"/>
<path d="M15.8128 45.1138C14.9044 45.1138 13.966 44.9882 13.0476 44.7272C12.6782 44.6209 12.4586 44.2441 12.5684 43.8865C12.6782 43.529 13.0675 43.326 13.4369 43.4227C15.1539 43.9059 16.9009 43.8672 18.3584 43.3164C19.3866 42.9298 20.7143 42.0988 21.2234 40.398C21.3333 40.0405 21.7226 39.8375 22.0919 39.9342C22.4613 40.0405 22.671 40.4174 22.5711 40.7749C22.052 42.5143 20.7343 43.8672 18.8775 44.5726C17.9291 44.9302 16.8909 45.1138 15.8128 45.1138Z" fill="white"/>
<path d="M23.7994 47.4027C23.0008 47.4027 22.2121 47.2964 21.4434 47.0742C21.0741 46.9679 20.8644 46.591 20.9643 46.2335C21.0741 45.8759 21.4534 45.6633 21.8328 45.7696C22.6713 46.0016 23.5398 46.0885 24.4083 46.0112C24.7877 45.9822 25.1271 46.2528 25.167 46.6297C25.197 47.0065 24.9175 47.3254 24.5281 47.3641C24.2786 47.3931 24.039 47.4027 23.7994 47.4027Z" fill="white"/>
<path d="M6.18016 134.273C5.0521 134.273 3.91407 133.973 2.89582 133.355C0.000818271 131.596 -0.867683 127.885 0.949182 125.093C2.76605 122.29 6.58945 121.44 9.48445 123.208C12.3795 124.967 13.248 128.678 11.4311 131.47C10.2631 133.278 8.24659 134.273 6.18016 134.273ZM6.20012 123.643C4.60288 123.643 3.04556 124.416 2.13713 125.817C0.729561 127.982 1.40839 130.852 3.64453 132.215C4.73265 132.872 6.01045 133.084 7.25829 132.814C8.50614 132.533 9.5743 131.809 10.2531 130.755C11.6607 128.591 10.9819 125.721 8.74573 124.358C7.94711 123.875 7.06862 123.643 6.20012 123.643Z" fill="white"/>
<path d="M260.112 163.6C259.912 163.6 259.722 163.513 259.583 163.368C259.423 163.194 259.373 162.943 259.443 162.721L262.248 154.033C262.328 153.792 262.538 153.608 262.797 153.569L272.071 152.072C272.311 152.033 272.55 152.12 272.71 152.294C272.87 152.468 272.92 152.719 272.85 152.941L270.045 161.629C269.965 161.87 269.755 162.054 269.496 162.093L260.222 163.59C260.182 163.6 260.152 163.6 260.112 163.6ZM263.456 154.835L261.12 162.073L268.847 160.827L271.183 153.589L263.456 154.835Z" fill="white"/>
<path d="M271.941 104.816L258.344 98.2741C257.396 97.8199 257.216 96.2834 257.955 94.8436C258.694 93.4037 260.061 92.6113 261.02 93.0655L274.616 99.6076C275.565 100.062 275.744 101.598 275.006 103.038C274.257 104.478 272.889 105.28 271.941 104.816Z" fill="white"/>
<path d="M272.53 105.628C272.211 105.628 271.911 105.561 271.632 105.426L258.035 98.8834C257.366 98.5645 256.927 97.8784 256.827 96.999C256.737 96.2259 256.917 95.3466 257.336 94.5445C257.756 93.7328 258.365 93.066 259.053 92.6698C259.832 92.2156 260.661 92.148 261.33 92.4668L274.926 99.009C275.595 99.3279 276.034 100.014 276.134 100.893C276.224 101.666 276.044 102.546 275.625 103.348C275.086 104.401 274.217 105.203 273.299 105.503C273.039 105.58 272.78 105.628 272.53 105.628ZM260.431 93.6168C260.231 93.6168 260.002 93.6844 259.772 93.8294C259.313 94.1 258.884 94.5735 258.584 95.1533C258.295 95.7234 258.155 96.3516 258.215 96.8637C258.265 97.2696 258.425 97.5691 258.654 97.6754L272.251 104.218C272.41 104.295 272.62 104.295 272.85 104.218C273.419 104.034 273.998 103.474 274.367 102.749C274.657 102.179 274.796 101.55 274.736 101.038C274.696 100.632 274.527 100.333 274.297 100.227L260.701 93.6844C260.631 93.6361 260.531 93.6168 260.431 93.6168Z" fill="white"/>
<path d="M257.965 94.8436C258.704 93.4037 260.071 92.6113 261.03 93.0655C261.978 93.5197 262.158 95.0562 261.419 96.496C260.68 97.9359 259.312 98.7283 258.354 98.2741C257.396 97.8199 257.226 96.2834 257.965 94.8436Z" fill="white"/>
<path d="M258.934 99.0757C258.624 99.0757 258.325 99.0081 258.035 98.8728C257.366 98.5539 256.927 97.8678 256.827 96.9884C256.737 96.2153 256.917 95.336 257.336 94.5339C258.265 92.7365 260.022 91.8185 261.33 92.4562C262.647 93.094 262.957 94.9977 262.028 96.7951C261.31 98.2157 260.062 99.0757 258.934 99.0757ZM260.441 93.6159C259.892 93.6159 259.083 94.1763 258.594 95.1427C258.305 95.7128 258.165 96.341 258.225 96.8531C258.275 97.259 258.435 97.5585 258.664 97.6648C259.183 97.9161 260.201 97.3363 260.79 96.196C261.379 95.0557 261.24 93.9154 260.721 93.6738C260.631 93.6352 260.541 93.6159 260.441 93.6159Z" fill="white"/>
<path d="M268.187 38.882C268.127 38.882 268.057 38.8724 267.997 38.853C267.628 38.7467 267.408 38.3699 267.518 38.0123C267.868 36.843 267.169 35.6158 265.961 35.2776C264.753 34.9393 263.485 35.6158 263.136 36.785C263.026 37.1426 262.647 37.3455 262.267 37.2489C261.898 37.1426 261.678 36.7657 261.788 36.4082C262.357 34.5238 264.404 33.4318 266.35 33.9827C268.297 34.5335 269.425 36.5048 268.856 38.3988C268.766 38.6887 268.487 38.882 268.187 38.882Z" fill="white"/>
<path d="M267.918 44.7951C267.858 44.7951 267.788 44.7854 267.718 44.7661C265.682 44.1959 263.935 43.0653 262.817 41.5868C261.619 40.002 261.249 38.1659 261.778 36.3975C261.888 36.04 262.268 35.8274 262.647 35.9337C263.016 36.04 263.226 36.4169 263.126 36.7744C262.607 38.5042 263.286 39.915 263.945 40.7847C264.883 42.0217 266.361 42.9783 268.108 43.4615C268.477 43.5678 268.697 43.9447 268.587 44.3022C268.497 44.6115 268.217 44.7951 267.918 44.7951Z" fill="white"/>
<path d="M262.069 42.7981C261.151 42.7981 260.192 42.6628 259.214 42.3923C258.845 42.286 258.635 41.9091 258.735 41.5515C258.845 41.194 259.224 40.9814 259.603 41.0877C263.277 42.1217 266.671 40.7978 267.51 38.0147C267.619 37.6572 267.999 37.4446 268.378 37.5509C268.748 37.6572 268.967 38.0341 268.857 38.3916C268.029 41.1457 265.323 42.7981 262.069 42.7981Z" fill="white"/>
<path d="M259.414 42.4172C259.354 42.4172 259.284 42.4075 259.214 42.3882C258.206 42.1079 257.257 41.6441 256.409 41.0256C256.099 40.8034 256.039 40.3782 256.269 40.0786C256.499 39.779 256.938 39.7211 257.247 39.9433C257.956 40.4651 258.745 40.842 259.593 41.0836C259.963 41.1899 260.172 41.5668 260.072 41.9243C259.993 42.2239 259.713 42.4172 259.414 42.4172Z" fill="white"/>
<path d="M276.695 41.2687C276.635 41.2687 276.565 41.2591 276.495 41.2397C276.125 41.1334 275.916 40.7566 276.016 40.399C276.365 39.2297 275.666 38.0025 274.458 37.6643C273.25 37.3261 271.983 38.0025 271.633 39.1718C271.523 39.5293 271.144 39.7419 270.765 39.6356C270.395 39.5293 270.186 39.1524 270.286 38.7949C270.845 36.9105 272.901 35.8186 274.838 36.3694C275.786 36.6303 276.565 37.2391 277.034 38.0701C277.503 38.9012 277.613 39.8675 277.343 40.7759C277.274 41.0755 276.994 41.2687 276.695 41.2687Z" fill="white"/>
<path d="M276.424 47.1857C276.364 47.1857 276.294 47.176 276.224 47.1567C274.188 46.5866 272.441 45.4559 271.323 43.9774C270.125 42.3926 269.755 40.5566 270.284 38.7882C270.394 38.4306 270.773 38.218 271.153 38.3243C271.522 38.4306 271.732 38.8075 271.632 39.165C271.113 40.8948 271.792 42.3056 272.451 43.1754C273.389 44.4123 274.866 45.369 276.613 45.8521C276.983 45.9584 277.192 46.3353 277.093 46.6929C277.003 46.9924 276.723 47.1857 276.424 47.1857Z" fill="white"/>
<path d="M270.524 45.1674C269.606 45.1674 268.657 45.0321 267.719 44.7712C267.349 44.6649 267.14 44.288 267.24 43.9304C267.349 43.5729 267.729 43.3603 268.108 43.4666C269.855 43.9594 271.632 43.9208 273.1 43.3603C274.138 42.9641 275.495 42.133 276.005 40.3936C276.114 40.0361 276.504 39.8235 276.873 39.9298C277.242 40.0361 277.462 40.413 277.352 40.7705C276.823 42.5292 275.495 43.9015 273.609 44.6166C272.67 44.9934 271.612 45.1674 270.524 45.1674Z" fill="white"/>
<path d="M278.619 47.4965C277.811 47.4965 277.012 47.3902 276.233 47.1679C275.864 47.0616 275.654 46.6848 275.754 46.3272C275.864 45.9697 276.243 45.7571 276.623 45.8634C277.471 46.105 278.35 46.1919 279.238 46.1146C279.618 46.0856 279.957 46.3562 279.997 46.7331C280.027 47.11 279.747 47.4289 279.358 47.4675C279.109 47.4868 278.859 47.4965 278.619 47.4965Z" fill="white"/>
<path d="M260.86 133.98C259.792 133.98 258.703 133.7 257.735 133.11C254.99 131.438 254.151 127.911 255.878 125.244C257.605 122.577 261.249 121.775 264.004 123.447C266.76 125.118 267.588 128.646 265.861 131.313C264.743 133.033 262.816 133.98 260.86 133.98ZM258.474 131.96C260.57 133.236 263.355 132.617 264.673 130.588C265.312 129.602 265.512 128.433 265.252 127.302C264.983 126.172 264.274 125.205 263.256 124.587C262.237 123.968 261.029 123.775 259.861 124.026C258.693 124.287 257.695 124.973 257.056 125.959C255.739 127.998 256.377 130.685 258.474 131.96Z" fill="white"/>
<path d="M33.124 28.555C33.084 28.555 33.0441 28.555 33.0042 28.5453C30.1591 28.0718 27.6734 26.5547 26.0063 24.2741C24.3391 21.9935 23.6903 19.2201 24.1794 16.4564C24.2493 16.0892 24.6087 15.8379 24.988 15.9055C25.3674 15.9732 25.6269 16.3211 25.557 16.6883C25.1278 19.0848 25.6968 21.5007 27.1543 23.4913C28.6118 25.482 30.768 26.7962 33.2537 27.2118C33.6331 27.2794 33.8926 27.6273 33.8228 27.9945C33.7529 28.3231 33.4534 28.555 33.124 28.555Z" fill="white"/>
<path d="M206.654 13.4292C206.364 13.4292 206.085 13.2456 205.995 12.9653C205.875 12.6078 206.075 12.2309 206.434 12.1053C207.882 11.6414 209.05 10.6558 209.728 9.34154C210.407 8.02731 210.517 6.52948 210.038 5.12828C209.559 3.72708 208.54 2.59646 207.183 1.93934C205.825 1.28223 204.278 1.17593 202.83 1.63978C202.461 1.75574 202.072 1.56247 201.952 1.21459C201.832 0.85704 202.032 0.480165 202.391 0.354541C204.188 -0.225266 206.115 -0.0899774 207.812 0.731415C209.509 1.55281 210.767 2.96367 211.366 4.70309C211.965 6.44251 211.825 8.30755 210.976 9.95033C210.128 11.5931 208.67 12.8107 206.873 13.3905C206.803 13.4195 206.724 13.4292 206.654 13.4292Z" fill="white"/>
<path d="M106.108 14.3359C105.929 14.3359 105.759 14.2682 105.619 14.1426C105.34 13.8817 105.34 13.4565 105.609 13.1859L116.231 2.59478C116.5 2.32421 116.94 2.32421 117.219 2.58512C117.499 2.84603 117.499 3.27122 117.229 3.5418L106.607 14.1329C106.478 14.2586 106.288 14.3359 106.108 14.3359Z" fill="white"/>
<path d="M45.8824 183.835C45.7626 183.574 45.6827 183.004 45.6827 183.004L44.6445 169.34L54.6373 179.042L54.6173 179.052C54.8369 179.245 55.0366 179.467 55.1564 179.728C55.9051 181.313 54.4376 183.526 51.8721 184.656C49.3165 185.787 46.6311 185.42 45.8824 183.835Z" fill="white"/>
<path d="M48.9267 186C47.2296 186 45.822 185.343 45.243 184.116C45.0833 183.787 45.0034 183.246 44.9835 183.091L43.9353 169.398C43.9153 169.118 44.075 168.847 44.3446 168.731C44.6141 168.615 44.9236 168.673 45.1332 168.867L55.126 178.569C55.1659 178.607 55.1958 178.646 55.2258 178.694C55.4754 178.936 55.655 179.187 55.7848 179.448C56.7132 181.4 55.116 183.961 52.1611 185.275C51.063 185.758 49.9449 186 48.9267 186ZM46.5208 183.555C47.0998 184.782 49.4158 185.005 51.5921 184.038C53.7583 183.082 55.106 181.236 54.527 180.009C54.4571 179.864 54.3373 179.719 54.1476 179.554C54.0977 179.506 54.0478 179.448 54.0079 179.39L45.4726 171.109L46.3811 182.956C46.411 183.14 46.4709 183.458 46.5208 183.555Z" fill="white"/>
<path d="M49.1654 178.902C51.7309 177.771 54.4063 178.139 55.165 179.723C55.9137 181.308 54.4462 183.512 51.8807 184.652C49.3151 185.782 46.6397 185.415 45.881 183.83C45.1323 182.246 46.5998 180.033 49.1654 178.902Z" fill="white"/>
<path d="M48.936 185.988C48.6565 185.988 48.377 185.969 48.1075 185.93C46.7298 185.746 45.7216 185.099 45.2524 184.113C44.7832 183.128 44.9429 181.968 45.7016 180.828C46.3904 179.794 47.5185 178.885 48.8761 178.286C51.831 176.982 54.8758 177.484 55.7942 179.446C56.2634 180.431 56.1037 181.591 55.345 182.731C54.6561 183.765 53.5281 184.674 52.1704 185.273C51.1023 185.737 49.9842 185.988 48.936 185.988ZM52.1205 178.924C51.3019 178.924 50.3636 179.117 49.4551 179.523C48.3371 180.016 47.4186 180.741 46.8696 181.572C46.3804 182.306 46.2606 183.012 46.5202 183.562C46.7797 184.113 47.4087 184.48 48.2971 184.606C49.2954 184.741 50.4634 184.548 51.5815 184.046C52.6995 183.553 53.6179 182.828 54.167 181.997C54.6561 181.272 54.7759 180.567 54.5164 180.016C54.187 179.301 53.2586 178.924 52.1205 178.924Z" fill="white"/>
<path d="M242.921 181.091C242.692 181.091 242.462 180.975 242.332 180.772L234.077 168.161C233.867 167.842 233.967 167.426 234.296 167.224C234.626 167.021 235.055 167.117 235.265 167.436L243.52 180.047C243.73 180.366 243.63 180.781 243.301 180.984C243.181 181.062 243.051 181.091 242.921 181.091Z" fill="white"/>
<path d="M206.644 178.21C206.355 178.21 206.075 178.026 205.985 177.746C205.866 177.389 206.065 177.012 206.425 176.896C209.639 175.862 211.386 172.48 210.318 169.368C209.799 167.861 208.701 166.633 207.233 165.928C205.766 165.213 204.099 165.097 202.541 165.599C202.172 165.715 201.783 165.522 201.663 165.174C201.543 164.817 201.743 164.44 202.102 164.324C204.009 163.705 206.055 163.85 207.862 164.72C209.669 165.59 211.007 167.097 211.646 168.943C212.284 170.798 212.135 172.77 211.236 174.519C210.338 176.268 208.78 177.563 206.874 178.181C206.794 178.2 206.714 178.21 206.644 178.21Z" fill="white"/>
<path d="M106.088 178.714C105.908 178.714 105.738 178.646 105.599 178.521C105.319 178.26 105.319 177.835 105.589 177.564L116.25 166.934C116.52 166.664 116.959 166.654 117.239 166.925C117.518 167.186 117.518 167.611 117.248 167.881L106.587 178.511C106.447 178.646 106.267 178.714 106.088 178.714Z" fill="white"/>
<path d="M146.239 29.524C146.039 29.524 145.849 29.4467 145.71 29.2824L143.464 26.7216C143.214 26.4413 143.254 26.0065 143.543 25.7649C143.843 25.5233 144.282 25.562 144.532 25.8422L146.778 28.403C147.027 28.6833 146.987 29.1181 146.698 29.3597C146.558 29.466 146.398 29.524 146.239 29.524Z" fill="white"/>
<path d="M138.801 21.0474C138.602 21.0474 138.412 20.9701 138.272 20.8058L136.026 18.245C135.776 17.9648 135.816 17.5299 136.106 17.2883C136.395 17.0468 136.845 17.0854 137.094 17.3657L139.34 19.9265C139.59 20.2067 139.55 20.6416 139.26 20.8831C139.121 20.9991 138.961 21.0474 138.801 21.0474Z" fill="white"/>
<path d="M138.881 30.8127C138.802 30.8127 138.722 30.803 138.642 30.774C138.282 30.6484 138.093 30.2619 138.223 29.914L139.391 26.754C139.52 26.4062 139.92 26.2226 140.279 26.3482C140.638 26.4738 140.828 26.8603 140.698 27.2082L139.53 30.3682C139.44 30.6484 139.171 30.8127 138.881 30.8127Z" fill="white"/>
<path d="M142.745 20.3478C142.665 20.3478 142.585 20.3382 142.505 20.3092C142.146 20.1836 141.956 19.797 142.086 19.4491L143.254 16.2892C143.384 15.9413 143.783 15.7577 144.142 15.8833C144.502 16.009 144.691 16.3955 144.562 16.7434L143.394 19.9033C143.294 20.1739 143.024 20.3478 142.745 20.3478Z" fill="white"/>
<path d="M134.04 25.3073C133.711 25.3073 133.411 25.0754 133.352 24.7565C133.282 24.3893 133.531 24.0317 133.911 23.9738L137.325 23.3746C137.704 23.307 138.073 23.5486 138.133 23.9158C138.203 24.283 137.954 24.6405 137.574 24.6985L134.16 25.2977C134.12 25.2977 134.08 25.3073 134.04 25.3073Z" fill="white"/>
<path d="M145.341 23.3073C145.012 23.3073 144.712 23.0754 144.652 22.7565C144.582 22.3893 144.832 22.0317 145.211 21.9738L148.626 21.3746C149.005 21.307 149.374 21.5486 149.434 21.9158C149.504 22.283 149.254 22.6405 148.875 22.6985L145.461 23.2977C145.421 23.3073 145.381 23.3073 145.341 23.3073Z" fill="white"/>
<path d="M195.274 116.913C195.025 116.913 194.785 116.787 194.655 116.565L189.744 107.858C189.554 107.53 189.684 107.124 190.023 106.94C190.363 106.757 190.782 106.882 190.972 107.211L195.554 115.318L203.929 110.883C204.269 110.699 204.688 110.825 204.878 111.154C205.067 111.482 204.938 111.888 204.598 112.072L195.604 116.826C195.504 116.884 195.384 116.913 195.274 116.913Z" fill="white"/>
<path d="M169.238 164.343C169.228 164.343 169.228 164.343 169.238 164.343C168.849 164.343 168.539 164.034 168.539 163.657L168.619 155.26C168.619 155.028 168.739 154.815 168.938 154.699C169.138 154.574 169.388 154.564 169.607 154.651L175.876 157.386L175.946 150.022C175.946 149.655 176.266 149.355 176.645 149.355C176.645 149.355 176.645 149.355 176.655 149.355C177.044 149.355 177.354 149.665 177.344 150.042L177.264 158.449C177.264 158.681 177.144 158.893 176.945 159.009C176.745 159.135 176.495 159.154 176.276 159.058L170.007 156.323L169.937 163.686C169.927 164.044 169.617 164.343 169.238 164.343Z" fill="white"/>
<path d="M202.87 69.498C202.71 69.498 202.561 69.4497 202.431 69.3531L197.02 65.1591C196.721 64.9272 196.671 64.502 196.91 64.2121C197.15 63.9222 197.589 63.8739 197.889 64.1058L202.75 67.8842L206.624 63.1975C206.743 63.0525 206.913 62.9655 207.093 62.9462C207.273 62.9269 207.462 62.9752 207.602 63.0912L212.464 66.8696L216.337 62.1828C216.577 61.8929 217.016 61.8446 217.315 62.0765C217.615 62.3084 217.665 62.7336 217.425 63.0235L213.112 68.2418C212.993 68.3771 212.823 68.4737 212.643 68.493C212.464 68.5124 212.274 68.464 212.134 68.3481L207.273 64.5697L203.399 69.2564C203.279 69.4014 203.11 69.4884 202.93 69.5077C202.92 69.498 202.89 69.498 202.87 69.498Z" fill="white"/>
<path d="M208.791 143.981C208.531 143.981 208.292 143.846 208.162 143.604L205.267 138.038L199.507 140.84C199.158 141.005 198.738 140.869 198.569 140.541L195.674 134.965L189.913 137.767C189.564 137.932 189.145 137.806 188.975 137.468L186.08 131.902L180.32 134.704C179.971 134.868 179.551 134.743 179.382 134.405C179.212 134.076 179.342 133.66 179.691 133.496L186.07 130.385C186.41 130.211 186.839 130.346 187.009 130.684L189.904 136.26L195.664 133.458C196.003 133.284 196.432 133.419 196.602 133.757L199.497 139.323L205.257 136.521C205.606 136.347 206.016 136.482 206.195 136.82L209.41 142.995C209.58 143.324 209.45 143.739 209.1 143.904C209.011 143.962 208.901 143.981 208.791 143.981Z" fill="white"/>
<path d="M53.7084 154.206C53.1693 154.206 52.6302 154.09 52.1211 153.859C51.2127 153.443 50.5338 152.718 50.1845 151.81C50.0547 151.462 50.2443 151.066 50.6037 150.94C50.9631 150.815 51.3624 150.998 51.5022 151.346C51.7118 151.916 52.1411 152.37 52.7101 152.631C53.2791 152.892 53.918 152.921 54.507 152.709C55.7249 152.283 56.3538 150.979 55.9146 149.8C55.7848 149.452 55.9745 149.056 56.3338 148.93C56.6932 148.805 57.0925 148.988 57.2323 149.336C57.9311 151.22 56.9228 153.298 54.9862 153.975C54.5669 154.129 54.1376 154.206 53.7084 154.206Z" fill="white"/>
<path d="M56.5726 150.245C56.2831 150.245 56.0136 150.071 55.9137 149.8C55.2649 148.061 53.8273 147.298 52.7292 146.95C51.1819 146.466 49.365 146.544 47.6181 147.153C47.2587 147.278 46.8594 147.095 46.7196 146.747C46.5898 146.399 46.7795 146.012 47.1389 145.877C49.1754 145.162 51.3117 145.085 53.1585 145.655C55.1251 146.264 56.5726 147.568 57.2315 149.327C57.3612 149.675 57.1716 150.071 56.8122 150.197C56.7323 150.235 56.6525 150.245 56.5726 150.245Z" fill="white"/>
<path d="M50.8429 152.253C50.5534 152.253 50.2839 152.079 50.1841 151.809C49.5252 150.05 49.7748 148.146 50.8828 146.465C51.9211 144.89 53.6181 143.624 55.6546 142.918C56.014 142.793 56.4133 142.976 56.5531 143.324C56.6828 143.672 56.4932 144.068 56.1338 144.194C54.3868 144.803 52.9393 145.876 52.0608 147.199C51.4419 148.137 50.8429 149.615 51.4918 151.355C51.6216 151.703 51.4319 152.099 51.0725 152.224C51.0026 152.234 50.9228 152.253 50.8429 152.253Z" fill="white"/>
<path d="M55.8931 144.225C55.6036 144.225 55.3341 144.051 55.2343 143.78C55.1045 143.432 55.2941 143.046 55.6535 142.91C56.6718 142.553 57.7399 142.388 58.8081 142.408C59.1974 142.417 59.4969 142.727 59.4969 143.094C59.4869 143.471 59.1774 143.761 58.7881 143.761C57.8897 143.741 56.9812 143.886 56.1327 144.186C56.0528 144.215 55.973 144.225 55.8931 144.225Z" fill="white"/>
<path d="M45.1927 157.183C44.6537 157.183 44.1146 157.067 43.6055 156.835C42.697 156.42 42.0182 155.695 41.6688 154.786C41.539 154.439 41.7287 154.042 42.0881 153.917C42.4475 153.791 42.8468 153.975 42.9866 154.323C43.1962 154.893 43.6254 155.347 44.1945 155.608C44.7635 155.869 45.4024 155.898 45.9914 155.685C47.2093 155.26 47.8382 153.955 47.3989 152.776C47.2692 152.429 47.4588 152.042 47.8182 151.907C48.1776 151.781 48.5869 151.965 48.7167 152.313C49.4155 154.197 48.4072 156.275 46.4705 156.951C46.0513 157.106 45.622 157.183 45.1927 157.183Z" fill="white"/>
<path d="M48.057 153.229C47.7675 153.229 47.4979 153.055 47.3981 152.785C46.7492 151.045 45.3117 150.282 44.2136 149.934C42.6663 149.451 40.8494 149.528 39.1024 150.137C38.743 150.263 38.3437 150.079 38.204 149.731C38.0742 149.383 38.2639 148.997 38.6233 148.861C40.6597 148.146 42.7961 148.069 44.6429 148.639C46.6095 149.248 48.057 150.552 48.7158 152.311C48.8456 152.659 48.6559 153.055 48.2966 153.181C48.2167 153.21 48.1368 153.229 48.057 153.229Z" fill="white"/>
<path d="M42.3283 155.23C42.0388 155.23 41.7692 155.056 41.6694 154.785C41.0105 153.027 41.2601 151.123 42.3682 149.442C43.4064 147.866 45.1035 146.6 47.14 145.895C47.4993 145.769 47.8987 145.953 48.0384 146.301C48.1682 146.649 47.9785 147.045 47.6191 147.171C45.8721 147.779 44.4246 148.852 43.5462 150.176C42.9272 151.113 42.3283 152.592 42.9771 154.331C43.1069 154.679 42.9172 155.075 42.5579 155.201C42.488 155.22 42.4081 155.23 42.3283 155.23Z" fill="white"/>
<path d="M36.3279 151.63C36.1283 151.63 35.9386 151.552 35.7988 151.398C35.5493 151.117 35.5792 150.692 35.8687 150.441C36.6873 149.755 37.6157 149.233 38.6339 148.876C38.9933 148.75 39.4026 148.934 39.5324 149.281C39.6622 149.629 39.4725 150.016 39.1131 150.151C38.2646 150.451 37.4859 150.895 36.7871 151.465C36.6474 151.572 36.4876 151.63 36.3279 151.63Z" fill="white"/>
<path d="M151.878 65.9984C151.739 65.9984 151.609 65.9791 151.469 65.9404C150.75 65.7182 150.351 64.9741 150.581 64.2783C150.81 63.5826 151.569 63.196 152.288 63.4183C153.006 63.6405 153.406 64.3846 153.176 65.0804C152.996 65.6409 152.457 65.9984 151.878 65.9984ZM151.888 64.6455C151.878 64.6455 151.858 64.6552 151.858 64.6649L151.689 65.293L151.888 64.6455Z" fill="white"/>
<path d="M26.9445 85.4899C26.8047 85.4899 26.665 85.4706 26.5252 85.4223C25.7865 85.2 25.3772 84.4269 25.6068 83.7118C25.7166 83.364 25.9662 83.0837 26.2956 82.9194C26.625 82.7552 27.0044 82.7165 27.3637 82.8325C27.7231 82.9388 28.0126 83.1804 28.1823 83.4992C28.352 83.8181 28.382 84.1854 28.2722 84.5332C28.0925 85.1227 27.5335 85.4899 26.9445 85.4899Z" fill="white"/>
<path d="M149.532 159.92C149.392 159.92 149.253 159.9 149.113 159.852C148.384 159.63 147.975 158.866 148.205 158.161C148.314 157.813 148.564 157.533 148.893 157.368C149.223 157.204 149.602 157.175 149.951 157.281C150.301 157.388 150.59 157.629 150.77 157.948C150.94 158.267 150.97 158.634 150.86 158.972C150.75 159.32 150.501 159.601 150.171 159.765C149.971 159.871 149.752 159.92 149.532 159.92ZM149.532 158.567L149.323 159.214L149.532 158.567Z" fill="white"/>
<path d="M78.2453 53.93C78.1055 53.93 77.9658 53.9107 77.836 53.872C77.4866 53.7657 77.2071 53.5338 77.0374 53.2246C76.8677 52.9153 76.8377 52.5578 76.9475 52.2196C77.0573 51.8813 77.2969 51.6108 77.6164 51.4465C77.9358 51.2822 78.3052 51.2532 78.6546 51.3595C79.004 51.4658 79.2835 51.6977 79.4532 52.007C79.6229 52.3162 79.6529 52.6737 79.543 53.012C79.4332 53.3502 79.1936 53.6208 78.8742 53.785C78.6745 53.8817 78.4549 53.93 78.2453 53.93ZM78.2453 52.5771C78.2253 52.5771 78.2153 52.5868 78.2053 52.6061L78.2553 52.5868C78.2453 52.5771 78.2453 52.5771 78.2453 52.5771Z" fill="white"/>
<path d="M253.294 55.0393C253.154 55.0393 253.014 55.02 252.864 54.9717C252.505 54.8654 252.206 54.6238 252.036 54.2952C251.866 53.9667 251.826 53.5995 251.946 53.2516C252.056 52.9037 252.305 52.6235 252.645 52.4495C252.984 52.2756 253.364 52.2466 253.723 52.3625C254.472 52.5945 254.881 53.3579 254.641 54.0826C254.452 54.6624 253.893 55.0393 253.294 55.0393ZM253.304 53.6671L253.284 53.6768C253.294 53.6864 253.304 53.6768 253.304 53.6671Z" fill="white"/>
<path d="M244.988 72.6732H233.128C232.739 72.6732 232.43 72.3736 232.43 71.9968C232.43 71.6199 232.739 71.3203 233.128 71.3203H244.988C245.377 71.3203 245.687 71.6199 245.687 71.9968C245.687 72.3736 245.367 72.6732 244.988 72.6732Z" fill="white"/>
<path d="M239.058 78.419C238.669 78.419 238.359 78.1194 238.359 77.7425V66.2624C238.359 65.8855 238.669 65.5859 239.058 65.5859C239.447 65.5859 239.757 65.8855 239.757 66.2624V77.7425C239.757 78.1194 239.438 78.419 239.058 78.419Z" fill="white"/>
<path d="M137.514 150.283H125.914C125.524 150.283 125.215 149.983 125.215 149.606C125.215 149.229 125.524 148.93 125.914 148.93H137.514C137.903 148.93 138.212 149.229 138.212 149.606C138.212 149.973 137.903 150.283 137.514 150.283Z" fill="white"/>
<path d="M131.714 155.898C131.325 155.898 131.016 155.599 131.016 155.222V143.993C131.016 143.616 131.325 143.316 131.714 143.316C132.104 143.316 132.413 143.616 132.413 143.993V155.222C132.413 155.599 132.094 155.898 131.714 155.898Z" fill="white"/>
<path d="M134.657 51.7958C134.478 51.7958 134.298 51.7281 134.158 51.5928C133.889 51.3319 133.889 50.8971 134.158 50.6362L142.454 42.6058C142.723 42.3449 143.173 42.3449 143.442 42.6058C143.712 42.8668 143.712 43.3016 143.442 43.5625L135.147 51.5928C135.017 51.7281 134.837 51.7958 134.657 51.7958Z" fill="white"/>
<path d="M142.953 51.7958C142.773 51.7958 142.594 51.7281 142.454 51.5928L134.158 43.5625C133.889 43.3016 133.889 42.8668 134.158 42.6058C134.428 42.3449 134.877 42.3449 135.147 42.6058L143.442 50.6362C143.712 50.8971 143.712 51.3319 143.442 51.5928C143.312 51.7281 143.133 51.7958 142.953 51.7958Z" fill="white"/>
<path d="M73.8327 33.9068C73.643 33.9068 73.4733 33.8392 73.3335 33.7039L66.665 27.2487C66.3955 26.9878 66.3955 26.553 66.665 26.2921L73.3335 19.8369C73.5931 19.5856 74.0623 19.5856 74.3218 19.8369L80.9903 26.2921C81.2599 26.553 81.2599 26.9878 80.9903 27.2487L74.3218 33.7039C74.1921 33.8295 74.0124 33.9068 73.8327 33.9068ZM68.1425 26.7656L73.8227 32.2641L79.5029 26.7656L73.8327 21.2671L68.1425 26.7656Z" fill="white"/>
<rect width="280" height="186" rx="24" fill="#400A3E" fill-opacity="0.9"/>
</svg>
