<svg width="26" height="26" viewBox="0 0 26 26" fill="none" xmlns="http://www.w3.org/2000/svg">
<path d="M8.02435 11.191L8.02435 4.36522" stroke="#356899" stroke-linecap="round" stroke-linejoin="round"/>
<path d="M18.5246 14.2355L18.5246 21.0613" stroke="#356899" stroke-linecap="round" stroke-linejoin="round"/>
<path fill-rule="evenodd" clip-rule="evenodd" d="M18.5832 9.45347C19.9869 9.45347 21.125 8.30713 21.125 6.8934C21.125 5.47967 19.9869 4.33333 18.5832 4.33333C17.1796 4.33333 16.0415 5.47967 16.0415 6.8934C16.0415 8.30713 17.1796 9.45347 18.5832 9.45347Z" stroke="#356899" stroke-linecap="round" stroke-linejoin="round"/>
<path fill-rule="evenodd" clip-rule="evenodd" d="M8.06678 21.6667C9.4704 21.6667 10.6086 20.5212 10.6086 19.1075C10.6086 17.6929 9.4704 16.5465 8.06678 16.5465C6.66315 16.5465 5.525 17.6929 5.525 19.1075C5.525 20.5212 6.66315 21.6667 8.06678 21.6667Z" stroke="#356899" stroke-linecap="round" stroke-linejoin="round"/>
</svg>
