<svg width="22" height="22" viewBox="0 0 22 22" fill="none" xmlns="http://www.w3.org/2000/svg">
<g clip-path="url(#clip0_1_1300)">
<path d="M4.82716 8.95125C5.25605 7.65366 6.08378 6.52466 7.19226 5.72532C8.30075 4.92597 9.63336 4.49711 11 4.49992C12.5492 4.49992 13.9498 5.04992 15.0498 5.95008L18.2508 2.75C16.3002 1.04958 13.8004 0 11 0C6.66416 0 2.93149 2.47317 1.13666 6.09583L4.82716 8.95125Z" fill="#EA4335"/>
<path d="M14.7033 16.5119C13.7042 17.1563 12.4355 17.5001 11 17.5001C9.63881 17.5029 8.31123 17.0774 7.20521 16.284C6.09919 15.4906 5.27077 14.3693 4.83724 13.079L1.13391 15.8904C2.04255 17.7295 3.44874 19.277 5.19275 20.3569C6.93676 21.4369 8.94868 22.0062 11 22C13.6886 22 16.2571 21.0439 18.1812 19.25L14.7042 16.5119H14.7033Z" fill="#5386E4"/>
<path d="M18.1812 19.25C20.1932 17.3727 21.4995 14.5787 21.4995 11C21.4995 10.3492 21.3996 9.64973 21.2502 8.99982H11V13.2504H16.8997C16.6091 14.6795 15.8272 15.7859 14.7043 16.5119L18.1812 19.25Z" fill="#4A90E2"/>
<path d="M4.83723 13.079C4.61298 12.4088 4.49905 11.7067 4.4999 11C4.4999 10.2832 4.61448 9.59474 4.82715 8.95124L1.13665 6.09583C0.381664 7.61995 -0.00752869 9.29913 -1.53203e-05 11C-1.53203e-05 12.76 0.407901 14.4192 1.1339 15.8904L4.83723 13.079Z" fill="#FBBC05"/>
</g>
<defs>
<clipPath id="clip0_1_1300">
<rect width="22" height="22" fill="white"/>
</clipPath>
</defs>
</svg>
